<mxfile host="app.diagrams.net" modified="2023-12-24T16:01:51.475Z" agent="Mozilla/5.0 (Macintosh; Intel Mac OS X 10_15_7) AppleWebKit/537.36 (KHTML, like Gecko) Chrome/120.0.0.0 Safari/537.36" version="22.1.11" etag="72WHg26IOV-JBSg_CDwx" type="github">
  <diagram name="Page-1" id="q9fO-JuXBQFBvQ7tK7Tp">
    <mxGraphModel>
      <root>
        <mxCell id="0" />
        <mxCell id="1" parent="0" />
      </root>
    </mxGraphModel>
  </diagram>
</mxfile>
